<?xml version="1.0" standalone="no"?>
<!DOCTYPE svg PUBLIC "-//W3C//DTD SVG 20010904//EN"
 "http://www.w3.org/TR/2001/REC-SVG-20010904/DTD/svg10.dtd">
<svg version="1.0" xmlns="http://www.w3.org/2000/svg"
 width="188.000000pt" height="188.000000pt" viewBox="0 0 188.000000 188.000000"
 preserveAspectRatio="xMidYMid meet">
<metadata>
Created by potrace 1.11, written by Peter Selinger 2001-2013
</metadata>
<g transform="translate(0.000000,188.000000) scale(0.100000,-0.100000)"
fill="#000000" stroke="none">
<path d="M928 1862 c-16 -2 -28 -8 -28 -13 0 -5 -39 -9 -87 -8 -76 0 -98 -4
-160 -29 -39 -17 -73 -28 -76 -26 -8 8 -57 -65 -57 -85 0 -18 -15 -35 -32 -36
-15 0 -118 -98 -116 -109 2 -7 -10 -23 -25 -37 -24 -20 -32 -36 -36 -70 -1 -3
-10 -16 -21 -29 -11 -12 -17 -26 -14 -31 2 -4 1 -16 -5 -26 -5 -10 -14 -29
-20 -43 -29 -62 -50 -95 -60 -95 -12 0 -61 -64 -61 -80 0 -6 -13 -31 -28 -56
-16 -24 -31 -62 -35 -84 -3 -22 -8 -50 -11 -63 -6 -26 28 -135 43 -140 6 -2
11 -12 11 -23 0 -10 6 -19 13 -20 6 0 26 -2 42 -2 25 -2 31 -7 33 -29 2 -16
-1 -28 -7 -28 -6 0 -11 -4 -11 -10 0 -5 6 -10 14 -10 21 0 30 -36 28 -114 -1
-63 1 -72 29 -107 16 -21 44 -43 63 -49 18 -5 48 -27 67 -46 37 -39 84 -64
123 -64 45 0 64 -28 70 -108 3 -40 13 -86 21 -102 8 -16 15 -35 15 -43 0 -14
18 -26 50 -34 8 -1 116 -3 240 -3 237 0 331 12 358 47 7 10 12 48 12 92 1 44
6 83 13 92 16 21 119 79 141 79 9 0 46 27 81 60 35 33 68 60 73 60 4 0 8 21 8
48 1 81 33 192 56 192 4 0 8 14 8 30 0 17 3 30 8 30 11 0 57 72 54 84 -6 19 9
57 21 54 17 -4 67 42 67 61 0 9 9 22 20 29 11 7 20 20 20 29 0 9 -3 14 -6 11
-7 -8 -17 0 -143 122 -73 72 -105 109 -107 128 -2 15 -13 50 -26 77 -12 28
-23 52 -23 55 -4 23 -18 50 -26 50 -5 0 -9 11 -9 25 0 13 -6 28 -13 32 -13 9
-32 44 -42 81 -4 12 -12 22 -18 22 -7 0 -21 19 -32 42 -11 23 -29 46 -40 52
-11 6 -24 17 -28 24 -5 7 -12 10 -18 7 -5 -4 -9 -1 -9 4 0 6 -6 11 -14 11 -8
0 -17 7 -20 16 -3 8 -10 12 -16 9 -5 -3 -10 -1 -10 4 0 6 -6 11 -14 11 -8 0
-16 4 -18 9 -1 5 -10 11 -18 13 -8 2 -23 11 -34 21 -18 15 -37 22 -58 18 -5 0
-8 5 -8 12 0 12 -93 17 -162 9z m-651 -1149 c-3 -20 -14 -25 -39 -17 -24 7
-11 34 18 34 17 0 23 -5 21 -17z"/>
</g>
</svg>
